<?xml version="1.0" encoding="iso-8859-1"?>

<svg version="1.1" id="_x34_" xmlns="http://www.w3.org/2000/svg" xmlns:xlink="http://www.w3.org/1999/xlink"
	 viewBox="0 0 511 279"  xml:space="preserve">
<g>
	<g>
		<g>
			<g>
				<path style="fill:#963343;" d="M510.948,28.386v222.416c0,15.595-12.733,28.328-28.327,28.328H28.328
					c-2.57,0-5.023-0.351-7.359-0.993c-9.696-2.57-17.347-10.221-19.917-19.917C0.35,255.883,0,253.372,0,250.802V28.386
					C0,12.791,12.733,0.058,28.328,0.058h454.293c2.92,0,5.782,0.467,8.411,1.285c0.059,0,0.117,0.058,0.117,0.058
					c8.761,2.745,15.712,9.696,18.457,18.457c0.058,0.058,0.058,0.117,0.058,0.117C510.481,22.662,510.948,25.466,510.948,28.386z"
					/>
				<path style="fill:#EFE5C2;" d="M467.308,126.625h-183.24V38.488c0-7.29-5.964-13.254-13.254-13.254H43.641
					c-7.29,0-13.254,5.964-13.254,13.254v199.068c0,7.29,5.965,13.254,13.254,13.254h81.741h145.432h196.494
					c7.294,0,13.251-5.958,13.251-13.252v-97.682C480.559,132.583,474.602,126.625,467.308,126.625z"/>
				<g>
					<rect x="50.527" y="40.756" style="fill:#3F3D3C;" width="45.587" height="45.587"/>
					<g>
						<path style="fill:#FFFFFF;" d="M77.331,50.873c0.234-0.642,0.526-1.11,0.935-1.402c0.584-0.409,1.285-0.584,2.22-0.584h1.051
							v-1.11H65.124v1.11h0.993c0.934,0,1.636,0.175,2.103,0.526c0.526,0.409,0.876,0.876,1.051,1.343
							c0.175,0.526,0.292,1.752,0.292,3.797v17.989c0,1.986-0.117,3.213-0.292,3.68c-0.175,0.701-0.526,1.11-0.934,1.402
							c-0.526,0.409-1.285,0.642-2.219,0.642h-0.993v1.051h16.412v-1.051h-1.051c-0.876,0-1.577-0.234-2.103-0.584
							c-0.525-0.351-0.876-0.817-1.051-1.343c-0.175-0.467-0.233-1.752-0.233-3.797V54.553
							C77.098,52.567,77.156,51.34,77.331,50.873z"/>
					</g>
				</g>
				<polygon style="opacity:0.5;fill:#80665B;" points="30.388,203.133 112.13,203.133 284.064,203.133 480.559,203.133 
					480.559,196.845 284.064,196.845 112.13,196.845 30.388,196.845 				"/>
				<polygon style="opacity:0.5;fill:#80665B;" points="30.388,215.708 112.13,215.708 284.064,215.708 480.559,215.708 
					480.559,209.421 284.064,209.421 112.13,209.421 30.388,209.421 				"/>
				<path style="fill:#8F3636;" d="M100.231,230.875c-6.718,0-12.183-5.465-12.183-12.183v-21.615H66.434
					c-6.718,0-12.183-5.465-12.183-12.183V152.67c0-6.718,5.465-12.183,12.183-12.183h21.615v-21.614
					c0-6.718,5.465-12.183,12.183-12.183h32.225c6.718,0,12.183,5.465,12.183,12.183v21.614h21.614
					c6.718,0,12.183,5.465,12.183,12.183v32.225c0,6.718-5.465,12.183-12.183,12.183h-21.614v21.615
					c0,6.718-5.465,12.183-12.183,12.183H100.231z"/>
				<g>
					<path style="fill:#232120;" d="M166.254,146.775h-27.902v-27.902c0-3.242-2.653-5.895-5.895-5.895h-32.225
						c-3.242,0-5.895,2.653-5.895,5.895v27.902H66.434c-3.242,0-5.895,2.653-5.895,5.895v32.225c0,3.242,2.653,5.895,5.895,5.895
						h27.902v27.902c0,3.242,2.653,5.895,5.895,5.895h32.225c3.242,0,5.895-2.653,5.895-5.895V190.79h27.902
						c3.242,0,5.895-2.653,5.895-5.895V152.67C172.149,149.428,169.496,146.775,166.254,146.775z"/>
					<circle style="opacity:0.5;fill:#3F3D3C;" cx="116.344" cy="168.783" r="20.632"/>
				</g>
				<g>
					<circle style="fill:#932323;" cx="362.428" cy="203.31" r="28.285"/>
					<circle style="fill:#232120;" cx="362.428" cy="203.31" r="22.521"/>
					<circle style="fill:#932323;" cx="429.236" cy="203.31" r="28.285"/>
					<circle style="fill:#232120;" cx="429.236" cy="203.31" r="22.521"/>
				</g>
				<g style="opacity:0.5;">
					<path style="fill:#3F3D3C;" d="M208.632,162.782c-0.117-0.292-0.234-0.525-0.467-0.759c-0.175-0.175-0.409-0.292-0.642-0.409
						c-0.234-0.058-0.526-0.175-0.935-0.233l-0.934-0.117c-0.175-0.058-0.35-0.058-0.467-0.117
						c-0.117-0.058-0.234-0.117-0.292-0.234c-0.117-0.058-0.175-0.175-0.175-0.234c-0.059-0.117-0.059-0.234-0.059-0.292
						c0-0.292,0.117-0.526,0.292-0.759c0.234-0.175,0.526-0.292,0.934-0.292c0.292,0,0.584,0,0.876,0.117
						c0.292,0.059,0.584,0.175,0.818,0.409l0.993-0.993c-0.35-0.292-0.759-0.584-1.168-0.701c-0.409-0.175-0.876-0.233-1.46-0.233
						c-0.467,0-0.818,0.058-1.168,0.175c-0.35,0.117-0.642,0.292-0.934,0.526c-0.234,0.233-0.409,0.467-0.526,0.759
						c-0.117,0.35-0.175,0.642-0.175,0.993c0,0.701,0.175,1.285,0.525,1.635c0.234,0.175,0.409,0.292,0.701,0.409
						c0.234,0.117,0.526,0.234,0.876,0.234l0.993,0.175c0.234,0.059,0.35,0.059,0.467,0.117c0.117,0,0.175,0.058,0.292,0.175
						c0.175,0.175,0.233,0.35,0.233,0.643c0,0.35-0.116,0.584-0.35,0.759c-0.233,0.175-0.642,0.292-1.11,0.292
						c-0.35,0-0.701-0.058-1.051-0.175c-0.35-0.117-0.642-0.292-0.876-0.525l-1.051,1.051c0.409,0.35,0.817,0.642,1.343,0.817
						c0.467,0.175,0.993,0.234,1.635,0.234c0.409,0,0.818-0.059,1.168-0.175c0.409-0.117,0.701-0.292,0.993-0.467
						c0.233-0.234,0.467-0.467,0.642-0.759c0.117-0.35,0.234-0.701,0.234-1.051C208.807,163.366,208.748,163.074,208.632,162.782z"
						/>
					<path style="fill:#3F3D3C;" d="M215.64,159.452v-1.46h-5.373v8.177h5.373v-1.46h-3.796v-1.928h3.212v-1.46h-3.212v-1.869
						H215.64z"/>
					<path style="fill:#3F3D3C;" d="M218.794,164.709v-6.717h-1.577v8.177h5.257v-1.46H218.794z"/>
					<path style="fill:#3F3D3C;" d="M229.132,159.452v-1.46h-5.373v8.177h5.373v-1.46h-3.796v-1.928h3.212v-1.46h-3.212v-1.869
						H229.132z"/>
					<path style="fill:#3F3D3C;" d="M234.331,164.476c-0.233,0.234-0.525,0.35-0.934,0.35c-0.175,0-0.409-0.058-0.584-0.117
						c-0.175-0.117-0.292-0.175-0.409-0.35c-0.058-0.059-0.117-0.175-0.175-0.234c-0.058-0.117-0.117-0.292-0.117-0.467
						c-0.059-0.117-0.059-0.35-0.059-0.584v-0.058c-0.058-0.292-0.058-0.526-0.058-0.935c0-0.409,0-0.701,0.058-0.934
						c0-0.292,0-0.467,0.059-0.643c0-0.175,0.058-0.35,0.117-0.409c0.059-0.117,0.117-0.234,0.175-0.292
						c0.117-0.117,0.234-0.234,0.409-0.35c0.175-0.058,0.409-0.117,0.584-0.117c0.409,0,0.701,0.117,0.934,0.351
						c0.175,0.175,0.292,0.409,0.409,0.642c0,0.058,0.059,0.117,0.059,0.175h1.577c-0.059-0.525-0.234-0.934-0.526-1.285
						c-0.058-0.233-0.233-0.467-0.467-0.642c-0.526-0.409-1.226-0.642-1.986-0.642c-0.467,0-0.876,0.058-1.227,0.233
						c-0.35,0.175-0.642,0.35-0.934,0.642c-0.234,0.175-0.35,0.409-0.467,0.642c-0.117,0.234-0.175,0.467-0.234,0.701
						c-0.058,0.292-0.117,0.584-0.117,0.876v2.103c0,0.292,0.059,0.584,0.117,0.876c0.058,0.117,0.058,0.292,0.117,0.409
						c0.058,0.117,0.058,0.234,0.117,0.292c0.117,0.233,0.233,0.467,0.467,0.642c0.292,0.292,0.584,0.526,0.934,0.642
						c0.35,0.175,0.759,0.234,1.227,0.234c0.759,0,1.46-0.234,1.986-0.642c0.526-0.467,0.876-1.052,0.993-1.928h-1.577
						C234.681,164.008,234.565,164.242,234.331,164.476z"/>
					<path style="fill:#3F3D3C;" d="M237.193,157.992v1.46h2.103v6.717h1.577v-6.717h2.161v-1.46H237.193z"/>
				</g>
				<g style="opacity:0.5;">
					<path style="fill:#3F3D3C;" d="M261.256,162.782c-0.058-0.292-0.233-0.525-0.467-0.759c-0.175-0.175-0.35-0.292-0.643-0.409
						c-0.233-0.058-0.526-0.175-0.876-0.233l-0.993-0.117c-0.175-0.058-0.351-0.058-0.467-0.117
						c-0.117-0.058-0.175-0.117-0.292-0.234c-0.058-0.058-0.117-0.175-0.175-0.234c0-0.117-0.058-0.234-0.058-0.292
						c0-0.292,0.117-0.526,0.292-0.759c0.234-0.175,0.526-0.292,0.993-0.292c0.234,0,0.526,0,0.818,0.117
						c0.292,0.059,0.584,0.175,0.818,0.409l0.993-0.993c-0.35-0.292-0.701-0.584-1.11-0.701c-0.467-0.175-0.935-0.233-1.519-0.233
						c-0.409,0-0.818,0.058-1.168,0.175c-0.35,0.117-0.642,0.292-0.876,0.526c-0.233,0.233-0.467,0.467-0.584,0.759
						c-0.117,0.35-0.175,0.642-0.175,0.993c0,0.701,0.175,1.285,0.584,1.635c0.175,0.175,0.409,0.292,0.642,0.409
						c0.233,0.117,0.584,0.234,0.935,0.234l0.934,0.175c0.233,0.059,0.409,0.059,0.467,0.117c0.117,0,0.234,0.058,0.292,0.175
						c0.175,0.175,0.234,0.35,0.234,0.643c0,0.35-0.117,0.584-0.35,0.759c-0.234,0.175-0.584,0.292-1.11,0.292
						c-0.35,0-0.701-0.058-1.051-0.175c-0.35-0.117-0.642-0.292-0.876-0.525l-1.052,1.051c0.409,0.35,0.876,0.642,1.344,0.817
						c0.467,0.175,1.051,0.234,1.635,0.234c0.467,0,0.818-0.059,1.227-0.175c0.35-0.117,0.642-0.292,0.934-0.467
						c0.292-0.234,0.467-0.467,0.643-0.759c0.175-0.35,0.233-0.701,0.233-1.051C261.432,163.366,261.373,163.074,261.256,162.782z"
						/>
					<path style="fill:#3F3D3C;" d="M262.308,157.992v1.46h2.161v6.717h1.577v-6.717h2.103v-1.46H262.308z"/>
					<path style="fill:#3F3D3C;" d="M272.763,157.992h-1.227l-2.979,8.177h1.636l0.526-1.46h2.862l0.526,1.46h1.635L272.763,157.992
						z M271.127,163.366l1.052-2.979l0.993,2.979H271.127z"/>
					<path style="fill:#3F3D3C;" d="M281.115,162.665c0.175-0.117,0.351-0.175,0.526-0.292c0.175-0.117,0.35-0.292,0.467-0.467
						c0.175-0.175,0.292-0.409,0.35-0.643c0.058-0.233,0.117-0.467,0.117-0.759c0-0.35-0.059-0.642-0.175-0.934
						c-0.117-0.35-0.292-0.584-0.526-0.818c-0.233-0.234-0.526-0.409-0.818-0.525c-0.35-0.117-0.701-0.234-1.11-0.234h-3.212v8.177
						h1.577v-3.271h1.168l1.577,3.271h1.869L281.115,162.665z M280.648,161.263c-0.175,0.234-0.467,0.292-0.818,0.292h-1.519v-2.103
						h1.519c0.35,0,0.642,0.059,0.818,0.292c0.234,0.175,0.35,0.467,0.35,0.759C280.998,160.854,280.882,161.088,280.648,161.263z"
						/>
					<path style="fill:#3F3D3C;" d="M283.627,157.992v1.46h2.103v6.717h1.577v-6.717h2.161v-1.46H283.627z"/>
				</g>
				<g>
					<path style="opacity:0.5;fill:#80665B;" d="M438.707,162.257h-19.911c-6.484,0-11.79-5.305-11.79-11.79v0
						c0-6.484,5.305-11.79,11.79-11.79h19.911c6.484,0,11.79,5.305,11.79,11.79v0C450.497,156.951,445.191,162.257,438.707,162.257z
						"/>
					<path style="fill:#EFE5C2;" d="M430.171,140.996h-2.862l-6.834,18.749h3.797l1.168-3.329h6.658l1.11,3.329h3.797
						L430.171,140.996z M426.433,153.32l2.395-6.775l2.278,6.775H426.433z"/>
				</g>
				<g>
					<path style="opacity:0.5;fill:#80665B;" d="M373.209,162.257h-19.912c-6.484,0-11.79-5.305-11.79-11.79v0
						c0-6.484,5.305-11.79,11.79-11.79h19.912c6.484,0,11.79,5.305,11.79,11.79v0C384.998,156.951,379.693,162.257,373.209,162.257z
						"/>
					<path style="fill:#EFE5C2;" d="M369.778,152.677c-0.175-0.526-0.467-0.993-0.876-1.46c-0.175-0.175-0.35-0.35-0.584-0.467
						c-0.175-0.175-0.467-0.35-0.818-0.525c1.519-0.876,2.336-2.161,2.336-3.972c0-0.818-0.175-1.519-0.409-2.161
						c-0.292-0.642-0.701-1.168-1.168-1.635c-0.526-0.409-1.11-0.759-1.869-1.051c-0.701-0.234-1.518-0.35-2.395-0.35h-7.593v18.807
						h7.885c0.876,0,1.694-0.117,2.395-0.35c0.759-0.292,1.343-0.642,1.869-1.11c0.467-0.467,0.876-0.993,1.109-1.694
						c0.292-0.642,0.409-1.402,0.409-2.22C370.07,153.845,370.012,153.203,369.778,152.677z M360.082,144.325h3.621
						c0.759,0,1.343,0.175,1.811,0.584c0.409,0.409,0.642,0.935,0.642,1.577c0,0.701-0.234,1.227-0.642,1.577
						c-0.467,0.409-1.051,0.584-1.811,0.584h-3.621V144.325z M365.747,156.007c-0.467,0.409-1.051,0.584-1.811,0.584h-3.855v-4.614
						h3.855c0.759,0,1.343,0.175,1.811,0.584c0.409,0.409,0.642,0.993,0.642,1.694C366.39,155.014,366.156,155.539,365.747,156.007z
						"/>
				</g>
				<g>
					<path style="fill:#8F3636;" d="M273.397,228.017h-51.875c-14.266,0-25.937-11.672-25.937-25.937l0,0
						c0-14.266,11.672-25.937,25.937-25.937h51.875c14.266,0,25.937,11.672,25.937,25.937l0,0
						C299.335,216.345,287.663,228.017,273.397,228.017z"/>
					<g>
						<path style="fill:#232120;" d="M236.456,209.939h-17.292c-3.891,0-7.074-3.183-7.074-7.074l0,0
							c0-3.891,3.183-7.074,7.074-7.074h17.292c3.891,0,7.074,3.183,7.074,7.074l0,0
							C243.53,206.756,240.347,209.939,236.456,209.939z"/>
						<path style="fill:#232120;" d="M275.755,209.939h-17.292c-3.891,0-7.074-3.183-7.074-7.074l0,0
							c0-3.891,3.183-7.074,7.074-7.074h17.292c3.891,0,7.074,3.183,7.074,7.074l0,0
							C282.829,206.756,279.646,209.939,275.755,209.939z"/>
					</g>
				</g>
			</g>
			<g style="opacity:0.1;">
				<path style="fill:#FFFFFF;" d="M284.069,44.741c0-7.307-5.983-13.29-13.232-13.29H43.649c-7.306,0-13.29,5.983-13.29,13.29
					v-8.63c0-7.307,5.983-13.29,13.29-13.29h227.188c7.249,0,13.232,5.983,13.232,13.29V44.741z"/>
				<path style="fill:#FFFFFF;" d="M480.536,137.481v8.63c0-7.307-5.926-13.232-13.232-13.232H284.069v-8.63h183.235
					C474.61,124.249,480.536,130.174,480.536,137.481z"/>
			</g>
		</g>
		<path style="opacity:0.06;fill:#040000;" d="M510.948,28.386v222.416c0,15.595-12.733,28.328-28.327,28.328H115.939l28.327-28.328
			l86.385-86.385l1.402-1.344v-0.058L395.01,0.058h87.611c2.92,0,5.782,0.467,8.411,1.285c0.059,0,0.117,0.058,0.117,0.058
			c8.761,2.745,15.712,9.696,18.457,18.457c0.058,0.058,0.058,0.117,0.058,0.117C510.481,22.662,510.948,25.466,510.948,28.386z"/>
	</g>
	<path style="opacity:0.06;fill:#FFFFFF;" d="M512,28.328v7.301c0-2.92-0.467-5.724-1.285-8.411c0,0,0-0.059-0.058-0.117
		c-2.745-8.761-9.695-15.712-18.457-18.457c0,0-0.059-0.058-0.117-0.058c-2.628-0.818-5.49-1.285-8.411-1.285H29.379
		c-15.595,0-28.328,12.733-28.328,28.328v-7.301C1.051,12.733,13.784,0,29.379,0h454.293c2.92,0,5.782,0.467,8.411,1.285
		c0.059,0,0.117,0.058,0.117,0.058c8.761,2.745,15.712,9.696,18.457,18.457c0.058,0.059,0.058,0.117,0.058,0.117
		C511.533,22.604,512,25.407,512,28.328z"/>
</g>
</svg>