<?xml version="1.0" encoding="iso-8859-1"?>
<!-- Uploaded to: SVG Repo, www.svgrepo.com, Generator: SVG Repo Mixer Tools -->
<svg height="300px" width="300px" version="1.1" id="Layer_1" xmlns="http://www.w3.org/2000/svg" xmlns:xlink="http://www.w3.org/1999/xlink"
	 viewBox="0 0 512 512" xml:space="preserve">
<path style="fill:#A78966;" d="M256,0C114.842,0,0,114.842,0,256s114.842,256,256,256s256-114.842,256-256S397.158,0,256,0z"/>
<path style="fill:#D9FB69;" d="M256,46.545C140.507,46.545,46.545,140.507,46.545,256S140.507,465.455,256,465.455
	S465.455,371.493,465.455,256S371.493,46.545,256,46.545z"/>
<g>
	<path style="fill:#87A829;" d="M175.838,256c0-12.853-10.42-23.273-23.273-23.273h-12.929c-12.853,0-23.273,10.42-23.273,23.273
		c0,12.853,10.42,23.273,23.273,23.273h12.929C165.418,279.273,175.838,268.853,175.838,256z"/>
	<path style="fill:#87A829;" d="M166.403,312.683l-9.143,9.143c-9.087,9.089-9.086,23.825,0.002,32.912
		c4.546,4.544,10.501,6.816,16.455,6.816c5.956,0,11.914-2.273,16.457-6.817l9.143-9.145c9.087-9.089,9.086-23.824-0.002-32.912
		C190.225,303.593,175.49,303.594,166.403,312.683z"/>
	<path style="fill:#87A829;" d="M256,116.364c-12.853,0-23.273,10.42-23.273,23.273v12.929c0,12.853,10.42,23.273,23.273,23.273
		c12.853,0,23.273-10.42,23.273-23.273v-12.929C279.273,126.784,268.853,116.364,256,116.364z"/>
	<path style="fill:#87A829;" d="M256,336.162c-12.853,0-23.273,10.42-23.273,23.273v12.929c0,12.853,10.42,23.273,23.273,23.273
		c12.853,0,23.273-10.42,23.273-23.273v-12.929C279.273,346.581,268.853,336.162,256,336.162z"/>
	<path style="fill:#87A829;" d="M329.14,206.134c5.956,0,11.914-2.273,16.457-6.817l9.143-9.143
		c9.087-9.089,9.087-23.825-0.002-32.912c-9.09-9.089-23.825-9.087-32.914,0l-9.143,9.145c-9.087,9.089-9.086,23.824,0.002,32.912
		C317.229,203.861,323.184,206.134,329.14,206.134z"/>
	<path style="fill:#87A829;" d="M372.364,232.727h-12.929c-12.853,0-23.273,10.42-23.273,23.273
		c0,12.853,10.42,23.273,23.273,23.273h12.929c12.853,0,23.273-10.42,23.273-23.273
		C395.636,243.147,385.216,232.727,372.364,232.727z"/>
	<path style="fill:#87A829;" d="M190.175,157.262c-9.089-9.089-23.824-9.089-32.914,0c-9.087,9.087-9.089,23.824-0.002,32.912
		l9.143,9.143c4.546,4.546,10.502,6.817,16.457,6.817s11.913-2.271,16.455-6.816c9.087-9.087,9.089-23.824,0.002-32.912
		L190.175,157.262z"/>
	<path style="fill:#87A829;" d="M345.597,312.683c-9.089-9.089-23.824-9.089-32.914-0.002c-9.087,9.087-9.089,23.823-0.002,32.912
		l9.143,9.145c4.546,4.544,10.502,6.817,16.457,6.817s11.913-2.273,16.455-6.816c9.087-9.087,9.089-23.824,0.002-32.912
		L345.597,312.683z"/>
</g>
<path style="fill:#B2FA09;" d="M232.727,372.364v-12.929c0-12.853,10.42-23.273,23.273-23.273V175.839
	c-12.853,0-23.273-10.42-23.273-23.273v-12.93c0-12.853,10.42-23.273,23.273-23.273V46.545
	C140.507,46.545,46.545,140.507,46.545,256S140.507,465.455,256,465.455v-69.818C243.147,395.636,232.727,385.216,232.727,372.364z
	 M116.364,256c0-12.853,10.42-23.273,23.273-23.273h12.929c12.853,0,23.273,10.42,23.273,23.273
	c0,12.853-10.42,23.273-23.273,23.273h-12.929C126.784,279.273,116.364,268.853,116.364,256z M199.318,345.594l-9.143,9.145
	c-4.544,4.544-10.502,6.817-16.457,6.817c-5.956,0-11.911-2.271-16.455-6.816c-9.087-9.087-9.089-23.824-0.002-32.912l9.143-9.143
	c9.087-9.089,23.822-9.09,32.914-0.002C208.404,321.77,208.406,336.505,199.318,345.594z M199.317,199.318
	c-4.544,4.544-10.502,6.816-16.455,6.816c-5.956,0-11.913-2.271-16.457-6.817l-9.143-9.143c-9.087-9.089-9.086-23.825,0.002-32.912
	c9.089-9.089,23.824-9.087,32.914,0l9.143,9.145C208.406,175.495,208.404,190.23,199.317,199.318z"/>
<path style="fill:#D9FB69;" d="M256,46.545v69.818c12.853,0,23.273,10.42,23.273,23.273v12.93c0,12.853-10.42,23.273-23.273,23.273
	v160.323c12.853,0,23.273,10.42,23.273,23.273v12.929c0,12.853-10.42,23.273-23.273,23.273v69.818
	c115.493,0,209.455-93.961,209.455-209.455S371.493,46.545,256,46.545z M312.681,166.406l9.143-9.145
	c9.087-9.087,23.824-9.089,32.914,0c9.087,9.087,9.089,23.824,0.002,32.912l-9.143,9.143c-4.544,4.544-10.501,6.817-16.457,6.817
	s-11.911-2.271-16.455-6.816C303.596,190.23,303.594,175.495,312.681,166.406z M354.738,354.738
	c-4.544,4.543-10.502,6.816-16.455,6.816c-5.956,0-11.913-2.271-16.457-6.817l-9.143-9.145c-9.087-9.089-9.086-23.824,0.002-32.912
	c9.089-9.087,23.824-9.087,32.914,0.002l9.143,9.143C363.827,330.915,363.826,345.651,354.738,354.738z M372.364,279.273h-12.929
	c-12.853,0-23.273-10.42-23.273-23.273c0-12.853,10.42-23.273,23.273-23.273h12.929c12.853,0,23.273,10.42,23.273,23.273
	C395.636,268.853,385.216,279.273,372.364,279.273z"/>
<path style="fill:#806749;" d="M46.545,256c0-115.493,93.961-209.455,209.455-209.455V0C114.842,0,0,114.842,0,256
	s114.842,256,256,256v-46.545C140.507,465.455,46.545,371.493,46.545,256z"/>
</svg>