<?xml version="1.0" encoding="iso-8859-1"?>
<svg fill="#159505" version="1.1" id="Capa_1" xmlns="http://www.w3.org/2000/svg" xmlns:xlink="http://www.w3.org/1999/xlink"
	 width="800px" height="800px" viewBox="0 0 98.553 98.553"
	 xml:space="preserve">
<g>
	<g>
		<path d="M43.844,2.906L0,28.68l16.53,54.789l47.302,12.178l34.721-24.825V14.03L43.844,2.906z M92.033,18.238L58.188,43.832
			l-6.334-1.736l-1.768-11.498c0.887,1.624,2.557,3.588,4.279,3.375c2.777-0.345,3.377-6.268,3.369-6.236
			c0.789-6.753-3.832-6.395-4.888-6.244c-0.481,0.051-2.813,0.429-3.799,2.359L46.706,9.335L92.033,18.238z M54.381,58.555
			l-2.146-13.976l5.137,1.407l1.449,13.488L54.381,58.555z M52.91,64.65c-0.323-0.016-1.764-0.18-1.141-2.158
			c-0.004,0.01,0.486-1.751,1.34-1.695c0.853,0.058,1.308,1.881,1.303,1.869C54.771,64.713,53.14,64.67,52.91,64.65z M53.861,23.812
			c0.287-0.074,1.584-0.33,1.631,1.372c0.018,0.154-0.122,1.475-0.863,1.719c-0.913,0.3-1.428-0.528-1.422-0.52
			C51.912,24.092,54.205,23.736,53.861,23.812z M44.568,9.802l4.86,31.628L9.418,30.465L44.568,9.802z M7.706,32.376L49.81,43.916
			l2.217,14.432c-0.02-0.002-0.035-0.006-0.055-0.006c-1.327-0.033-2.423,1.27-3.21,2.646L21.385,77.717L7.706,32.376z
			 M23.493,79.084l23.8-14.51c-1.435,6.105,3.099,6.441,4.138,6.45c0.759,0.033,6.101-0.044,4.655-6.695
			c0.007,0.021-0.379-1.713-1.178-3.319l4.168,0.863l2.978,27.156L23.493,79.084z M64.324,88.525l-2.885-26.162l1.744,0.361
			c0.129,0.724,0.262,1.205,0.26,1.197c1.957,6.512,6.162,4.299,7.07,3.741c0.371-0.209,1.948-1.213,2.422-2.917l19.123,3.937
			L64.324,88.525z M67.916,59.155c0.626-0.386,1.859,0.669,1.854,0.662c1.273,1.258,0.106,2.043-0.063,2.146
			c-0.237,0.152-1.329,0.758-1.882-0.944C67.824,61.026,67.289,59.543,67.916,59.155z M93.637,66.407l-20.811-4.026
			c-0.297-0.858-0.887-1.813-1.906-2.861c0.031,0.025-4.244-4.323-6.657-2.903c-1.091,0.642-1.36,2.2-1.331,3.713l-1.751-0.362
			l-1.543-14.354L93.68,19.634L93.637,66.407z"/>
		<path d="M37.616,51.223c-0.039,0.015,5.878-1.465,5.878-4.265c0-2.799-5.909-4.426-5.878-4.415
			c-6.605-1.615-6.832,3.13-6.814,4.196C30.79,47.5,31.003,52.838,37.616,51.223z M38.59,43.822
			c-0.01-0.003,1.772,0.487,1.772,1.331c0,0.844-1.784,1.29-1.772,1.286c-1.993,0.486-2.057-1.123-2.055-1.352
			C36.532,44.767,36.599,43.336,38.59,43.822z"/>
		<path d="M38.54,54.58c-6.165,2.869-3.377,6.715-2.696,7.534c0.464,0.601,3.97,4.634,8.121-0.76
			c-0.021,0.036,3.386-5.104,1.637-7.29S38.508,54.59,38.54,54.58z M43.241,57.346c-1.369,1.779-2.524,0.449-2.677,0.25
			c-0.225-0.27-1.146-1.537,0.888-2.483c-0.011,0.003,1.752-0.892,2.329-0.17C44.358,55.664,43.235,57.358,43.241,57.346z"/>
		<path d="M74.829,48.341c0.041-0.004-6.06,0.031-6.722,2.75c-0.662,2.72,4.695,5.699,4.668,5.681
			c6.035,3.132,7.379-1.424,7.611-2.463C80.581,53.575,81.637,48.337,74.829,48.341z M78.547,51.735
			c-0.066,0.308-0.466,1.659-2.257,0.731c0.009,0.004-1.578-0.879-1.384-1.686c0.197-0.807,2.007-0.816,1.994-0.814
			C78.919,49.965,78.605,51.519,78.547,51.735z"/>
		<path d="M75.135,45.97c6.709-1.104,5.059-5.557,4.623-6.53c-0.283-0.705-2.574-5.532-8.023-1.455
			c0.029-0.027-4.836,3.652-3.736,6.228C69.094,46.789,75.169,45.968,75.135,45.97z M74.975,38.752
			c1.512-1.131,2.146,0.208,2.225,0.403c0.121,0.27,0.578,1.505-1.282,1.811c0.01,0-1.675,0.227-1.978-0.487
			C73.633,39.766,74.982,38.744,74.975,38.752z"/>
		<path d="M60.803,35.657c2.445,1.363,6.62-2.274,7.008-2.756c4.625-4.982,0.59-7.492-0.349-7.993
			c-0.656-0.382-5.427-2.795-7.233,3.767C60.234,28.635,58.359,34.294,60.803,35.657z M64.461,26.953
			c0.559-1.75,1.932-0.913,2.131-0.786c0.23,0.135,1.217,0.802,0.012,2.003c-0.104,0.117-1.183,0.985-1.781,0.621
			C63.956,28.263,64.426,27.107,64.461,26.953z"/>
		<path d="M44.868,30.125c-4.631-4.979-7.429-1.141-7.998-0.24c-0.43,0.626-3.185,5.206,3.228,7.49
			c-0.041-0.01,5.43,2.295,6.967-0.043C48.604,34.993,45.774,31.101,44.868,30.125z M44.129,32.488
			c-0.451,0.685-2.055,0.009-2.042,0.012c-1.88-0.67-1.072-2.013-0.946-2.196c0.167-0.264,0.987-1.389,2.344,0.07
			C43.75,30.661,44.581,31.802,44.129,32.488z"/>
	</g>
</g>
</svg>